<svg width="55" height="56" viewBox="0 0 55 56" fill="none" xmlns="http://www.w3.org/2000/svg">
<g clip-path="url(#clip0_2_10)">
<path d="M20.4972 0.0656357C19.9861 0.210011 19.5405 0.586261 19.3002 1.08501C19.1648 1.36064 19.1561 1.40439 19.1561 1.85939C19.1561 2.30564 19.1648 2.35814 19.2915 2.62501C19.3658 2.78251 19.5187 3.01001 19.6279 3.13251L19.8332 3.36001V22.7325V42.1094L10.2006 42.1225L0.563538 42.1313L1.07903 42.735C2.36338 44.24 3.38999 45.3513 4.87092 46.8388C7.53574 49.5163 9.82486 51.45 12.1664 53.0031C15.0147 54.8931 17.3125 55.8075 19.5798 55.9606C20.7768 56.0438 22.7601 55.9781 24.3546 55.7988C31.2438 55.0419 39.5179 51.8919 47.9885 46.7994C50.2121 45.465 53.1477 43.5094 54.7335 42.3106L54.9738 42.1313L38.5699 42.1225L22.1704 42.1094L22.1573 22.7281L22.1485 3.35126L22.2752 3.21564C22.7951 2.66439 22.9742 1.95126 22.7601 1.30814C22.581 0.783136 22.2665 0.428761 21.7685 0.188136C21.502 0.0612607 21.3884 0.0306357 21.0913 0.0175107C20.8554 0.00438575 20.6501 0.0218857 20.4972 0.0656357Z" fill="white"/>
<path d="M23.8173 3.99C25.7919 14.2931 26.5389 20.5756 26.4603 26.1625C26.4253 28.3806 26.3467 29.5356 26.0977 31.2375C25.7045 33.95 24.9488 36.4088 23.9222 38.3338L23.6076 38.9244L37.2637 38.9506C44.7689 38.9638 50.9241 38.9681 50.9329 38.955C50.9853 38.9025 49.6179 35.8925 48.6612 33.9719C45.8042 28.2188 42.5715 23.1394 38.4476 17.9375C34.9353 13.5056 30.3614 8.75438 25.5341 4.52375C24.6561 3.75375 23.6426 2.8875 23.6207 2.8875C23.612 2.8875 23.6994 3.38625 23.8173 3.99Z" fill="white"/>
<path d="M18.4353 15.1156C18.4353 15.2425 18.077 16.7256 17.8848 17.4081C16.6747 21.6563 14.6303 25.2569 11.4718 28.6956C9.9297 30.3756 8.44439 31.7363 4.93645 34.6719C2.45948 36.7456 1.28435 37.765 0.436847 38.5788L0.0218353 38.9769L9.25257 38.9813H18.4789V27.0156C18.4789 20.4356 18.4702 15.05 18.4571 15.05C18.444 15.05 18.4353 15.0806 18.4353 15.1156Z" fill="white"/>
</g>
<defs>
<clipPath id="clip0_2_10">
<rect width="55" height="56" fill="white"/>
</clipPath>
</defs>
</svg>
